# xmcd
#
# Track frame offsets: 
#        150
#        10855
#        20611
#        30891
#        52883
#        65867
#        83691
#        97659
#        113236
#        124018
#        134468
#        145456
#        161224
#        171373
#
# Disc length: 2544 seconds
#
# Revision: 0
# Processed by: cddbd v1.5.2PL0 Copyright (c) Steve Scherf et al.
# Submitted via: ExactAudioCopy v0.95b4
#
DISCID=b609ee0e
DTITLE=Boogertown Gap - Old-Time Appalachian Music
DYEAR=2007
DGENRE=Folklore
TTITLE0=Cripple Creek
TTITLE1=Juliann Johnson
TTITLE2=Red-haired Boy
TTITLE3=Fly Around My Pretty Little Miss
TTITLE4=John Brown's March
TTITLE5=Black Jack Davey
TTITLE6=Cold Frosty Morn
TTITLE7=Pretty Saro
TTITLE8=Betsy Likens
TTITLE9=June Apple
TTITLE10=Boogerman
TTITLE11=Shady Grove
TTITLE12=West Fork Gals
TTITLE13=The Cuckoo
EXTD=
EXTT0=
EXTT1=
EXTT2=
EXTT3=
EXTT4=
EXTT5=
EXTT6=
EXTT7=
EXTT8=
EXTT9=
EXTT10=
EXTT11=
EXTT12=
EXTT13=
PLAYORDER=
